<?xml version="1.0" standalone="no"?>
<svg xmlns:xlink="http://www.w3.org/1999/xlink" id="wave" style="transform:rotate(0deg); transition: 0.3s" viewBox="0 0 1440 270" version="1.1" xmlns="http://www.w3.org/2000/svg"><defs><linearGradient id="sw-gradient-0" x1="0" x2="0" y1="1" y2="0"><stop stop-color="rgba(245, 155, 126, 0.7)" offset="0%"/><stop stop-color="rgba(195, 0, 117, 0.71)" offset="100%"/></linearGradient></defs><path style="transform:translate(0, 0px); opacity:1" fill="url(#sw-gradient-0)" d="M0,27L20,22.5C40,18,80,9,120,4.5C160,0,200,0,240,27C280,54,320,108,360,117C400,126,440,90,480,63C520,36,560,18,600,31.5C640,45,680,90,720,103.5C760,117,800,99,840,85.5C880,72,920,63,960,49.5C1000,36,1040,18,1080,9C1120,0,1160,0,1200,18C1240,36,1280,72,1320,76.5C1360,81,1400,54,1440,72C1480,90,1520,153,1560,175.5C1600,198,1640,180,1680,148.5C1720,117,1760,72,1800,81C1840,90,1880,153,1920,148.5C1960,144,2000,72,2040,36C2080,0,2120,0,2160,40.5C2200,81,2240,162,2280,202.5C2320,243,2360,243,2400,229.5C2440,216,2480,189,2520,153C2560,117,2600,72,2640,72C2680,72,2720,117,2760,126C2800,135,2840,108,2860,94.5L2880,81L2880,270L2860,270C2840,270,2800,270,2760,270C2720,270,2680,270,2640,270C2600,270,2560,270,2520,270C2480,270,2440,270,2400,270C2360,270,2320,270,2280,270C2240,270,2200,270,2160,270C2120,270,2080,270,2040,270C2000,270,1960,270,1920,270C1880,270,1840,270,1800,270C1760,270,1720,270,1680,270C1640,270,1600,270,1560,270C1520,270,1480,270,1440,270C1400,270,1360,270,1320,270C1280,270,1240,270,1200,270C1160,270,1120,270,1080,270C1040,270,1000,270,960,270C920,270,880,270,840,270C800,270,760,270,720,270C680,270,640,270,600,270C560,270,520,270,480,270C440,270,400,270,360,270C320,270,280,270,240,270C200,270,160,270,120,270C80,270,40,270,20,270L0,270Z"/></svg>