<?xml version="1.0" standalone="no"?>
<svg xmlns:xlink="http://www.w3.org/1999/xlink" id="wave" style="transform:rotate(0deg); transition: 0.3s" viewBox="0 0 1440 220" version="1.1" xmlns="http://www.w3.org/2000/svg"><defs><linearGradient id="sw-gradient-0" x1="0" x2="0" y1="1" y2="0"><stop stop-color="rgba(245, 155, 126, 1)" offset="0%"/><stop stop-color="rgba(195, 0, 117, 1)" offset="100%"/></linearGradient></defs><path style="transform:translate(0, 0px); opacity:1" fill="url(#sw-gradient-0)" d="M0,44L48,62.3C96,81,192,117,288,121C384,125,480,95,576,80.7C672,66,768,66,864,88C960,110,1056,154,1152,150.3C1248,147,1344,95,1440,88C1536,81,1632,117,1728,132C1824,147,1920,139,2016,128.3C2112,117,2208,103,2304,80.7C2400,59,2496,29,2592,14.7C2688,0,2784,0,2880,33C2976,66,3072,132,3168,150.3C3264,169,3360,139,3456,124.7C3552,110,3648,110,3744,102.7C3840,95,3936,81,4032,80.7C4128,81,4224,95,4320,91.7C4416,88,4512,66,4608,66C4704,66,4800,88,4896,88C4992,88,5088,66,5184,62.3C5280,59,5376,73,5472,84.3C5568,95,5664,103,5760,102.7C5856,103,5952,95,6048,102.7C6144,110,6240,132,6336,143C6432,154,6528,154,6624,157.7C6720,161,6816,169,6864,172.3L6912,176L6912,220L6864,220C6816,220,6720,220,6624,220C6528,220,6432,220,6336,220C6240,220,6144,220,6048,220C5952,220,5856,220,5760,220C5664,220,5568,220,5472,220C5376,220,5280,220,5184,220C5088,220,4992,220,4896,220C4800,220,4704,220,4608,220C4512,220,4416,220,4320,220C4224,220,4128,220,4032,220C3936,220,3840,220,3744,220C3648,220,3552,220,3456,220C3360,220,3264,220,3168,220C3072,220,2976,220,2880,220C2784,220,2688,220,2592,220C2496,220,2400,220,2304,220C2208,220,2112,220,2016,220C1920,220,1824,220,1728,220C1632,220,1536,220,1440,220C1344,220,1248,220,1152,220C1056,220,960,220,864,220C768,220,672,220,576,220C480,220,384,220,288,220C192,220,96,220,48,220L0,220Z"/></svg>