<?xml version="1.0" standalone="no"?>
<svg xmlns:xlink="http://www.w3.org/1999/xlink" id="wave" style="transform:rotate(0deg); transition: 0.3s" viewBox="0 0 1440 420" version="1.1" xmlns="http://www.w3.org/2000/svg"><defs><linearGradient id="sw-gradient-0" x1="0" x2="0" y1="1" y2="0"><stop stop-color="rgba(245, 155, 126, 0.45)" offset="0%"/><stop stop-color="rgba(195, 0, 117, 0.46)" offset="100%"/></linearGradient></defs><path style="transform:translate(0, 0px); opacity:1" fill="url(#sw-gradient-0)" d="M0,84L34.3,84C68.6,84,137,84,206,98C274.3,112,343,140,411,133C480,126,549,84,617,98C685.7,112,754,182,823,182C891.4,182,960,112,1029,77C1097.1,42,1166,42,1234,56C1302.9,70,1371,98,1440,140C1508.6,182,1577,238,1646,273C1714.3,308,1783,322,1851,273C1920,224,1989,112,2057,119C2125.7,126,2194,252,2263,266C2331.4,280,2400,182,2469,147C2537.1,112,2606,140,2674,182C2742.9,224,2811,280,2880,308C2948.6,336,3017,336,3086,322C3154.3,308,3223,280,3291,252C3360,224,3429,196,3497,217C3565.7,238,3634,308,3703,308C3771.4,308,3840,238,3909,203C3977.1,168,4046,168,4114,161C4182.9,154,4251,140,4320,147C4388.6,154,4457,182,4526,189C4594.3,196,4663,182,4731,161C4800,140,4869,112,4903,98L4937.1,84L4937.1,420L4902.9,420C4868.6,420,4800,420,4731,420C4662.9,420,4594,420,4526,420C4457.1,420,4389,420,4320,420C4251.4,420,4183,420,4114,420C4045.7,420,3977,420,3909,420C3840,420,3771,420,3703,420C3634.3,420,3566,420,3497,420C3428.6,420,3360,420,3291,420C3222.9,420,3154,420,3086,420C3017.1,420,2949,420,2880,420C2811.4,420,2743,420,2674,420C2605.7,420,2537,420,2469,420C2400,420,2331,420,2263,420C2194.3,420,2126,420,2057,420C1988.6,420,1920,420,1851,420C1782.9,420,1714,420,1646,420C1577.1,420,1509,420,1440,420C1371.4,420,1303,420,1234,420C1165.7,420,1097,420,1029,420C960,420,891,420,823,420C754.3,420,686,420,617,420C548.6,420,480,420,411,420C342.9,420,274,420,206,420C137.1,420,69,420,34,420L0,420Z"/></svg>